<?xml version="1.0" encoding="utf-8"?>
<!-- Generator: Adobe Illustrator 25.0.1, SVG Export Plug-In . SVG Version: 6.00 Build 0)  -->
<svg version="1.1" id="Ebene_1" xmlns="http://www.w3.org/2000/svg" xmlns:xlink="http://www.w3.org/1999/xlink" x="0px" y="0px"
	 viewBox="0 0 1024 768" style="enable-background:new 0 0 1024 768;" xml:space="preserve">
<style type="text/css">
	.st0{fill:#FFFFFF;}
</style>
<g>
	<path class="st0" d="M-116.25-154.13V954h1477.5V-154.13H-116.25z M899.05,537.45c0.31,4.62,0.48,9.28,0.48,13.99
		c0,115.55-93.67,209.22-209.22,209.22c-115.32,0-208.84-93.31-209.21-208.54c-35.45,27.6-80.01,44.05-128.42,44.05
		c-115.55,0-209.22-93.67-209.22-209.22s93.67-209.22,209.22-209.22c12.54,0,24.82,1.11,36.76,3.22
		C407.56,83.86,492.73,10.36,595.09,10.36c88.21,0,163.66,54.59,194.43,131.83c4.89-0.34,9.81-0.53,14.79-0.53
		c115.55,0,209.22,93.67,209.22,209.22C1013.52,432.32,966.98,502.89,899.05,537.45z"/>
</g>
</svg>
